HIERARCHY
ROOT Pelvis
{
	OFFSET 0.000000 0.000000 0.000000
	CHANNELS 6 Xposition Yposition Zposition Xrotation Yrotation Zrotation
	JOINT LeftUpLeg_virtual
	{
		OFFSET 0.000000 0.000000 0.000000
		CHANNELS 3 Xrotation Yrotation Zrotation
		JOINT LeftUpLeg
		{
			OFFSET 8.479700 -4.795502 -0.379100
			CHANNELS 3 Xrotation Yrotation Zrotation
			JOINT LeftLeg
			{
				OFFSET 0.024144 -32.555107 0.112900
				CHANNELS 3 Xrotation Yrotation Zrotation
				JOINT LeftFoot
				{
					OFFSET -0.024144 -32.638630 -3.012600
					CHANNELS 3 Xrotation Yrotation Zrotation
					JOINT LeftToeBase
					{
						OFFSET 0.970200 -13.225400 11.864200
						CHANNELS 3 Xrotation Yrotation Zrotation
						End Site
						{
							OFFSET 0 0 0
						}
					}
				}
			}
		}
	}
	JOINT RightUpLeg_virtual
	{
		OFFSET 0.000000 0.000000 0.000000
		CHANNELS 3 Xrotation Yrotation Zrotation
		JOINT RightUpLeg
		{
			OFFSET -8.479700 -4.795502 -0.379100
			CHANNELS 3 Xrotation Yrotation Zrotation
			JOINT RightLeg
			{
				OFFSET -0.023144 -32.555092 0.112900
				CHANNELS 3 Xrotation Yrotation Zrotation
				JOINT RightFoot
				{
					OFFSET 0.023144 -32.638641 -3.012700
					CHANNELS 3 Xrotation Yrotation Zrotation
					JOINT RightToeBase
					{
						OFFSET -0.970200 -13.225400 11.864200
						CHANNELS 3 Xrotation Yrotation Zrotation
						End Site
						{
							OFFSET 0 0 0
						}
					}
				}
			}
		}
	}
	JOINT Hips_virtual
	{
		OFFSET 0.000000 0.000000 0.000000
		CHANNELS 3 Xrotation Yrotation Zrotation
		JOINT Hips
		{
			OFFSET -0.000000 -0.000000 -0.000000
			CHANNELS 3 Xrotation Yrotation Zrotation
			JOINT Spine
			{
				OFFSET 0.000000 7.722000 1.166200
				CHANNELS 3 Xrotation Yrotation Zrotation
				JOINT Spine1
				{
					OFFSET 0.000000 12.024101 0.248800
					CHANNELS 3 Xrotation Yrotation Zrotation
					JOINT Spine2
					{
						OFFSET 0.000000 11.502998 -0.491200
						CHANNELS 3 Xrotation Yrotation Zrotation
						JOINT Neck_virtual
						{
							OFFSET 0.000000 0.000000 0.000000
							CHANNELS 3 Xrotation Yrotation Zrotation
							JOINT Neck
							{
								OFFSET 0.000000 18.430702 -3.123100
								CHANNELS 3 Xrotation Yrotation Zrotation
								JOINT Head
								{
									OFFSET 0.000000 9.051102 1.034000
									CHANNELS 3 Xrotation Yrotation Zrotation
									End Site
									{
										OFFSET 0 0 0
									}
								}
							}
						}
						JOINT LeftShoulder_virtual
						{
							OFFSET 0.000000 0.000000 0.000000
							CHANNELS 3 Xrotation Yrotation Zrotation
							JOINT LeftShoulder
							{
								OFFSET 6.197800 13.665199 -4.064700
								CHANNELS 3 Xrotation Yrotation Zrotation
								JOINT LeftArm
								{
									OFFSET 7.778100 -0.187103 -1.709300
									CHANNELS 3 Xrotation Yrotation Zrotation
									JOINT LeftForeArm
									{
										OFFSET 22.049376 0.000000 0.000000
										CHANNELS 3 Xrotation Yrotation Zrotation
										JOINT LeftHand
										{
											OFFSET 23.009392 0.000000 0.000000
											CHANNELS 3 Xrotation Yrotation Zrotation
											End Site
											{
												OFFSET 0 0 0
											}
										}
									}
								}
							}
						}
						JOINT RightShoulder_virtual
						{
							OFFSET 0.000000 0.000000 0.000000
							CHANNELS 3 Xrotation Yrotation Zrotation
							JOINT RightShoulder
							{
								OFFSET -6.197800 13.665199 -4.064700
								CHANNELS 3 Xrotation Yrotation Zrotation
								JOINT RightArm
								{
									OFFSET -7.778100 -0.187103 -1.709300
									CHANNELS 3 Xrotation Yrotation Zrotation
									JOINT RightForeArm
									{
										OFFSET -22.049376 0.000000 0.000000
										CHANNELS 3 Xrotation Yrotation Zrotation
										JOINT RightHand
										{
											OFFSET -23.009392 0.000000 0.000000
											CHANNELS 3 Xrotation Yrotation Zrotation
											End Site
											{
												OFFSET 0 0 0
											}
										}
									}
								}
							}
						}
					}
				}
			}
		}
	}
}
MOTION
Frames: 5
Frame Time: 0.03333333
-0.044235 74.825233 -0.053658 0.000000 0.000000 0.000000 -0.669646 -15.837295 -1.587034 -35.877201 17.131006 14.105258 51.153151 3.716875 10.213774 -16.947702 1.729159 -11.032893 0.000000 0.000000 0.000000 -0.669646 -15.837295 -1.587034 -31.800930 -21.113308 -10.962183 50.733231 -3.433108 -10.210132 -20.054699 -2.215165 10.379469 0.000000 0.000000 0.000000 -0.669646 -15.837295 -1.587034 0.000000 -0.000001 0.000000 3.773177 1.243401 0.177664 2.523602 1.177443 -0.059024 0.000000 0.000000 0.000000 2.503912 1.224026 -0.090937 0.457849 0.824229 4.848788 0.000000 0.000000 0.000000 2.503912 1.224026 -0.090937 0.513448 1.082366 14.986782 -49.547449 -53.697192 -56.631991 -0.000011 -52.589561 -0.000011 0.000000 0.000000 0.000000 2.503912 1.224026 -0.090937 0.384724 -1.325532 -0.769391 -176.133954 84.807891 169.697553 -0.000000 25.659959 0.000000 0.000000 0.000000 0.000000 
-0.011799 74.802658 -0.034122 0.000000 0.000000 0.000000 -0.673406 -15.785243 -1.574935 -35.881361 17.061811 14.019050 51.239423 3.771259 10.212974 -17.004772 1.738907 -11.023703 0.000000 0.000000 0.000000 -0.673406 -15.785243 -1.574935 -31.900255 -21.290138 -11.154795 50.835735 -3.275858 -10.208846 -20.110413 -2.181116 10.347831 0.000000 0.000000 0.000000 -0.673406 -15.785243 -1.574935 0.000000 -0.000001 0.000000 3.764911 1.223597 0.222974 2.514744 1.164375 -0.024040 0.000000 0.000000 0.000000 2.495215 1.211957 -0.055856 0.444798 0.831758 4.833577 0.000000 0.000000 0.000000 2.495215 1.211957 -0.055856 0.748158 0.781682 15.125090 -49.125886 -53.329895 -56.178886 0.000001 -52.952486 0.000003 0.000000 0.000000 0.000000 2.495215 1.211957 -0.055856 0.387290 -1.315634 -0.755623 -175.362949 84.851440 169.029956 -0.000000 25.704917 0.000000 0.000000 0.000000 0.000000 
0.027720 74.776871 -0.010778 0.000000 0.000000 0.000000 -0.691473 -15.729552 -1.566048 -35.863896 16.963659 13.908098 51.336211 3.856627 10.212007 -17.071223 1.754782 -11.022622 0.000000 0.000000 0.000000 -0.691473 -15.729552 -1.566048 -31.996994 -21.479487 -11.369482 50.950209 -3.102031 -10.207411 -20.171721 -2.145152 10.317015 0.000000 0.000000 0.000000 -0.691473 -15.729552 -1.566048 0.000000 0.000001 0.000000 3.764422 1.206893 0.276012 2.511989 1.154430 0.015427 0.000000 0.000000 0.000000 2.492558 1.203283 -0.016407 0.427323 0.835599 4.813935 0.000000 0.000000 0.000000 2.492558 1.203283 -0.016407 0.696102 0.770074 15.279767 -49.162827 -53.221514 -56.426074 -0.000010 -52.964722 -0.000010 0.000000 0.000000 0.000000 2.492558 1.203283 -0.016407 0.383951 -1.340512 -0.713610 -174.944982 84.873672 168.720371 0.000000 25.763176 0.000001 0.000000 0.000000 0.000000 
0.078765 74.748573 0.016451 0.000000 0.000000 0.000000 -0.725985 -15.681785 -1.557524 -35.821084 16.849447 13.771674 51.440771 3.977261 10.210934 -17.148390 1.774025 -11.027406 0.000000 0.000000 0.000000 -0.725985 -15.681785 -1.557524 -32.086152 -21.651922 -11.596804 51.072507 -2.922536 -10.205891 -20.231314 -2.113475 10.295377 0.000000 0.000000 0.000000 -0.725985 -15.681785 -1.557524 0.000000 -0.000001 0.000000 3.771751 1.194699 0.340241 2.515585 1.148444 0.062321 0.000000 0.000000 0.000000 2.496205 1.198884 0.030350 0.407234 0.837273 4.781250 0.000000 0.000000 0.000000 2.496205 1.198884 0.030350 0.649401 0.743677 15.445090 -49.232229 -53.041299 -56.699456 -0.000013 -52.985087 -0.000016 0.000000 0.000000 0.000000 2.496205 1.198884 0.030350 0.376742 -1.384607 -0.671987 -174.707892 84.878795 168.586267 0.000000 25.831337 0.000001 0.000000 0.000000 0.000000 
0.147780 74.718643 0.046757 0.000000 0.000000 0.000000 -0.775684 -15.659228 -1.545077 -35.754708 16.741443 13.612552 51.550129 4.136331 10.209680 -17.237977 1.791403 -11.032856 0.000000 0.000000 0.000000 -0.775684 -15.659228 -1.545077 -32.168333 -21.775616 -11.827947 51.197568 -2.745446 -10.204246 -20.278862 -2.090551 10.290749 0.000000 0.000000 0.000000 -0.775684 -15.659228 -1.545077 0.000000 -0.000002 0.000000 3.785485 1.190986 0.418374 2.524802 1.149003 0.120566 0.000000 0.000000 0.000000 2.505399 1.201392 0.088318 0.385440 0.838614 4.727868 0.000000 0.000000 0.000000 2.505399 1.201392 0.088318 0.614100 0.699942 15.619082 -49.322551 -52.782824 -56.988691 0.000002 -53.012752 -0.000002 0.000000 0.000000 0.000000 2.505399 1.201392 0.088318 0.369205 -1.423147 -0.665888 -174.470175 84.880707 168.433380 -0.000001 25.903101 0.000001 0.000000 0.000000 0.000000 
